<?xml version="1.0" standalone="no"?>
<!DOCTYPE svg PUBLIC "-//W3C//DTD SVG 20010904//EN"
 "http://www.w3.org/TR/2001/REC-SVG-20010904/DTD/svg10.dtd">
<svg version="1.0" xmlns="http://www.w3.org/2000/svg"
 width="300.000000pt" height="300.000000pt" viewBox="0 0 300.000000 300.000000"
 preserveAspectRatio="xMidYMid meet">
<metadata>
Created by potrace 1.11, written by Peter Selinger 2001-2013
</metadata>
<g transform="translate(0.000000,300.000000) scale(0.100000,-0.100000)"
fill="#000000" stroke="none">
<path d="M1398 2985 c-3 -3 -25 -7 -49 -9 -135 -12 -317 -56 -439 -106 -64
-26 -193 -96 -225 -122 -5 -4 -37 -28 -70 -52 -68 -50 -173 -150 -225 -215
-19 -23 -43 -52 -52 -63 -10 -12 -18 -24 -18 -28 0 -3 -8 -15 -17 -26 -41 -46
-125 -213 -162 -324 -26 -73 -60 -228 -69 -310 -10 -93 -3 -515 8 -515 3 0 11
-56 13 -87 1 -16 5 -28 9 -28 5 0 8 -9 8 -21 0 -20 35 -133 61 -194 7 -16 13
-32 14 -35 19 -57 123 -231 180 -300 90 -108 315 -300 354 -300 6 0 11 -4 11
-8 0 -7 105 -65 120 -67 3 0 16 -7 30 -15 31 -17 176 -69 210 -76 14 -3 34 -8
45 -11 26 -9 23 -8 80 -18 28 -4 59 -10 70 -12 93 -21 515 -24 515 -3 0 3 15
5 33 6 17 1 45 4 61 7 24 5 105 19 126 22 3 0 10 3 15 6 6 4 43 16 82 28 92
27 188 71 283 130 101 63 109 70 229 191 119 121 131 134 131 144 0 4 9 16 20
28 10 11 26 36 35 54 8 18 19 35 23 38 9 5 6 71 -3 86 -3 6 -13 10 -21 10 -8
0 -14 5 -14 10 0 6 -6 10 -14 10 -8 0 -16 4 -18 10 -5 16 -66 18 -88 3 -12 -8
-25 -25 -29 -37 -29 -75 -197 -256 -306 -328 -73 -48 -206 -118 -224 -118 -6
0 -11 -5 -11 -10 0 -6 -3 -9 -7 -8 -5 1 -39 -9 -78 -21 -38 -13 -77 -24 -85
-25 -9 -1 -21 -5 -28 -10 -6 -4 -17 -4 -22 -1 -6 4 -16 2 -23 -4 -7 -5 -33
-12 -57 -15 -25 -3 -67 -9 -95 -13 -62 -9 -275 -8 -335 2 -25 3 -54 8 -65 9
-48 6 -216 56 -232 69 -7 5 -13 7 -13 4 0 -3 -37 13 -82 35 -256 124 -447 313
-567 562 -39 81 -83 203 -95 266 -3 14 -7 34 -10 46 -5 25 -16 110 -23 174
-10 106 -1 261 22 370 3 14 7 37 10 51 3 14 11 44 19 67 9 23 15 43 15 45 0 1
3 11 6 22 81 244 231 454 433 604 77 57 228 141 255 141 9 0 17 4 17 8 0 5 6
9 13 9 6 0 44 10 84 22 39 12 86 24 105 26 18 2 33 4 33 5 0 22 499 17 535 -5
4 -2 22 -7 41 -10 36 -6 127 -34 144 -44 6 -3 15 -6 20 -6 13 -1 172 -82 185
-95 3 -3 27 -23 55 -45 69 -56 138 -128 199 -210 91 -123 100 -146 43 -112
-12 8 -42 13 -67 13 -45 -1 -45 -1 -48 -40 -3 -29 4 -48 25 -80 15 -22 33 -45
39 -51 5 -5 23 -28 39 -50 16 -22 35 -46 41 -53 7 -6 15 -21 19 -31 3 -11 12
-22 20 -25 8 -3 15 -12 15 -21 0 -8 4 -15 8 -15 4 0 21 -21 38 -47 16 -26 39
-57 52 -69 12 -13 22 -27 22 -31 1 -4 15 -25 33 -46 25 -29 41 -38 65 -39 45
-1 53 10 58 83 4 58 6 83 19 189 2 19 5 63 7 98 1 35 5 65 8 67 3 2 5 68 5
147 l0 143 -38 -1 c-21 -1 -39 -3 -40 -5 -28 -40 -83 -109 -88 -109 -3 0 -14
19 -25 43 -26 59 -77 138 -159 245 -28 37 -172 179 -187 185 -10 3 -18 11 -18
17 0 5 -5 10 -12 10 -6 0 -25 10 -42 23 -68 52 -243 125 -361 152 -45 11 -135
24 -197 29 -26 2 -52 7 -57 11 -6 3 -11 2 -11 -4 0 -5 -8 -8 -17 -6 -10 2 -18
4 -18 6 0 7 -217 5 -221 -3 -3 -5 -11 -5 -18 1 -7 6 -15 8 -18 6z"/>
</g>
</svg>
